<svg width="22" height="23" viewBox="0 0 22 23" fill="none" xmlns="http://www.w3.org/2000/svg">
<path d="M13.9184 22.6956C13.9049 22.7093 13.8897 22.7211 13.8731 22.7308C13.8031 22.7705 13.716 22.7646 13.652 22.7157C13.049 22.3338 9.90585 20.158 7.84809 17.6128C7.73252 17.4671 7.67724 17.3992 7.67976 17.3138C7.64458 16.1204 9.7551 14.7661 11.3681 13.8943H11.3832C11.4043 13.8808 11.4308 13.8796 11.4531 13.891C11.4753 13.9023 11.4898 13.9246 11.4913 13.9495C11.4913 15.6279 11.9611 20.2308 13.9309 22.3665C14.0165 22.4615 14.011 22.6074 13.9184 22.6956V22.6956Z" fill="#FFAD00"/>
<path d="M12.6093 12.5199L16.9761 10.535C18.0931 10.0975 18.9637 9.19475 19.3605 8.06269L19.9057 6.53257C19.9243 6.47112 19.9063 6.40444 19.8593 6.36068C19.8124 6.31691 19.7446 6.30367 19.6846 6.32654L11.343 9.85915L11.3732 9.72598C11.4159 9.47832 11.567 9.26269 11.7852 9.13805C13.1973 8.26872 18.2575 5.68082 18.2575 5.68082C19.8629 4.93098 21.0683 3.52698 21.5665 1.82661L21.9484 0.517585C21.9707 0.440809 21.9471 0.358059 21.8877 0.304553C21.8283 0.251046 21.7436 0.2362 21.6695 0.266332C21.6695 0.266332 14.054 3.22609 11.6069 4.41451C9.15965 5.60293 6.65215 7.13557 5.78282 11.638C5.43107 13.4621 6.07679 15.0073 7.29033 16.756C7.2828 15.0349 11.632 12.9923 12.6093 12.5199Z" fill="#FFAD00"/>
<path d="M1.8683 4.814C1.17736 4.28385 0.589426 4.23863 0.486413 4.28385C0.4437 4.12305 1.28037 3.72607 1.38338 3.62306C1.72257 3.29895 1.91353 2.8693 2.3105 2.59293C3.11954 2.01756 4.11952 2.19595 4.9587 2.65071C5.38583 2.88689 6.5617 3.65572 6.57928 3.69592C7.24808 4.19578 7.87189 4.75318 8.44358 5.36173C8.48334 5.39691 8.50713 5.44672 8.5095 5.49977C8.51187 5.55281 8.49261 5.60454 8.45614 5.64313C8.37825 5.70343 8.20489 5.84413 7.90338 6.11046C5.92603 7.91696 5.34563 10.5049 5.19991 11.437C5.19991 11.4571 5.17227 11.6179 5.17227 11.6179C5.17227 11.6179 4.20997 6.46221 1.8683 4.814Z" fill="#FFAD00"/>
</svg>
